<svg version="1.2" xmlns="http://www.w3.org/2000/svg" viewBox="0 0 5242.88 512" width="5243" height="512">
	<style>
		.s0 { fill: #fcfcfc } 
		.s1 { fill: #fdfdfd } 
		.s2 { fill: #fafafa } 
		.s3 { fill: #fbfbfb } 
		.s4 { fill: #f8f8f8 } 
	</style>
	<g id="Layer 1">
		<path class="s0" d="m2740.23 304.24c-7.29 8.66-15.67 16.13-24.89 22.62-30.88 21.76-65.34 31.52-102.98 30.19-26-0.92-50.36-7.9-72.79-21.06-37.35-21.91-61.01-54.2-71.28-96.17-3.79-15.48-4.29-31.31-2.42-47.15 4.04-34.28 19.1-63.08 43.42-87.31q29.15-29.03 68.69-40.01c8.2-2.27 16.66-3.54 25.27-5.33 0-4.02 0-8.37 0-13.24q-2.55 0.01-5.1 0c-2.92-0.02-5.84 0.07-8.75-0.09-4.83-0.27-8.25-3.22-8.67-8.01-0.34-3.87-0.25-7.84 0.2-11.7 0.52-4.33 4.27-7.4 8.67-7.45 10.04-0.13 20.07-0.12 30.11-0.16q12.44-0.05 24.88-0.06c1.9 0 3.82 0.04 5.7 0.26 3.4 0.41 6.68 3.32 6.99 6.87 0.39 4.37 0.45 8.82 0.06 13.18-0.39 4.3-4.13 7.02-8.9 7.09-4.47 0.07-8.94 0.01-13.53 0.01 0 4.59 0 8.8 0 13.05 5.82 0.92 11.58 1.62 17.26 2.75q35.6 7.09 64.8 28.75c16.42 12.18 29.61 27.16 39.87 44.78 1.96 3.37 3.3 6.85 1.92 10.89-2.9 8.45-14 10.54-20.34 3.52-3.1-3.43-5.5-7.49-8.24-11.25-9.18-12.59-20.43-22.97-33.34-31.63-15.61-10.47-32.62-17.52-51.14-20.67-23.93-4.08-47.43-2.25-70.34 5.93-27.35 9.77-49.38 26.51-65.65 50.64-9.77 14.49-16.14 30.44-18.51 47.73-3.09 22.44-0.81 44.41 8.86 65.09 16.71 35.74 44.25 59.6 81.28 72.8 23.4 8.34 47.47 9.71 71.87 6.79 26.68-3.19 51.59-12.05 75.06-25 3.85-2.13 7.51-4.6 11.51-6.85 0.26 0.05 0.45 0.2 0.45 0.2z"/>
		<path class="s1" d="m2611.66 306.72c11.52-16.97 26.45-30.01 43.53-40.79 14.29-9.02 29.57-16.15 44.76-23.45 11.24-5.41 22.25-11.26 32.11-19.03 0.64-0.5 1.26-1.03 2.3-1.88-0.87 0-1.28-0.12-1.56 0.02-19.21 9.86-39.93 15.98-59.9 23.94-17.96 7.16-34.74 16.42-49.28 29.34-12.04 10.72-22.07 23.02-29.05 37.91 0-5.26-0.23-10.53 0.04-15.78 0.81-15.85 4.61-30.99 11.46-45.3 5.82-12.17 14.1-22.49 24.29-31.31 18.82-16.28 41.27-24.64 65.16-29.82 13.21-2.86 26.52-5.34 39.64-8.56 13.54-3.33 26.56-8.25 37.22-17.62 4.68-4.11 8.53-9.18 12.81-13.87 0.52 2.91 1.28 6.25 1.7 9.64 3.84 31.1 1.05 61.39-11.32 90.46-11.88 27.9-31.63 47.85-59.98 59.06-14.62 5.78-29.71 9.5-45.4 10.9-20.87 1.87-41.56 1.02-62.04-3.62-0.72-0.16-1.42-0.41-2.49-0.73 2.02-3.21 3.95-6.29 6-9.51z"/>
		<path class="s2" d="m2629.41 440.98c-4.59 13.03-9.12 25.87-13.71 38.88-3.91 0-7.89 0.09-11.86-0.1-0.66-0.03-1.57-1.21-1.85-2.04-4.25-12.4-8.41-24.84-12.59-37.26-0.1-0.3-0.23-0.6-0.54-1.41-2.06 6.11-3.95 11.76-5.86 17.41-2.44 7.24-4.94 14.46-7.32 21.71-0.45 1.37-1.09 1.76-2.49 1.71-3.07-0.12-6.16-0.14-9.24 0.01-1.5 0.08-2.02-0.57-2.46-1.8-6.15-17.08-12.35-34.14-18.51-51.21-1.07-2.96-2.07-5.93-3.18-9.11 4.96 0 9.66 0 14.52 0 4.78 14.42 9.57 28.87 14.59 44.02 1.84-5.53 3.45-10.34 5.04-15.16 3-9.14 5.97-18.3 9.04-27.42 0.21-0.6 1.15-0.99 1.8-1.39 0.24-0.14 0.65-0.04 0.98-0.03 2.89 0.07 6.53-0.88 8.45 0.52 1.93 1.42 2.23 5.15 3.1 7.91 3.58 11.32 7.11 22.65 10.66 33.97 0.09 0.28 0.3 0.53 0.67 1.16 4.87-14.74 9.62-29.12 14.4-43.6 4.74 0 9.46 0 14.56 0-2.75 7.76-5.44 15.4-8.2 23.23z"/>
		<path class="s2" d="m2380.08 460.5c0.03-16.83 0.05-33.4 0.09-49.98 0.01-6.09 1.15-11.86 4.7-17 4.22-6.11 10.12-9.91 17.35-10.37 10.95-0.7 21.95-0.47 32.93-0.64 1.48-0.02 2.95 0 4.5 0 0 4.55 0 8.94 0 13.82-5.61 0-11.08-0.01-16.55 0-5.16 0.01-10.33-0.05-15.49 0.07-8.53 0.2-13.14 5.01-13.17 13.58-0.02 5.24 0 10.48 0 16.06 13.85 0 27.53 0 41.34 0 0 4.78 0 9.23 0 13.94-13.72 0-27.34 0-41.26 0 0 13.37 0 26.47 0 39.72-4.86 0-9.41 0-14.44 0 0-6.38 0-12.67 0-19.2z"/>
		<path class="s2" d="m2726.77 417.11c18.3 5.51 22.58 23.63 19.44 37.72q-22.75 0-45.58 0c0.12 7.82 6.74 14.73 14.89 15.67 6.77 0.78 13.05-0.6 18.74-4.45 0.89-0.6 1.8-1.16 2.85-1.83 2.21 2.89 4.37 5.7 6.96 9.09-3.06 1.88-5.84 3.93-8.9 5.4-8.42 4.02-17.35 4.67-26.28 2.44-10.76-2.69-17.91-9.68-20.96-20.34-3.31-11.54-3.05-22.92 4.4-33.01 5.53-7.48 13.29-11.43 22.62-11.7 3.86-0.12 7.75 0.62 11.82 1.01zm2.09 14.71c-5.56-4.87-11.96-5.17-18.44-2.67-6.51 2.51-9.38 8.02-10.45 14.8 11.26 0 22.37 0 33.47 0 0.17-4.86-0.84-7.61-4.58-12.13z"/>
		<path class="s3" d="m2495.01 417.54c19.08-5.63 39.83 3.41 43.19 25.72 2.65 17.6-4.99 31.24-19.76 36.77-19.3 7.22-40.76-2.58-44.22-24.68-1.95-12.44 0.98-23.73 11-32.18 2.79-2.35 6.38-3.76 9.79-5.63zm-1.3 46.94c7.85 8.05 24.72 6.88 29.65-6.84 2.49-6.93 1.97-13.83-1.34-20.29-5.16-10.07-20.68-12.18-28.27-4.06-7.9 8.45-8.03 22.19-0.04 31.19z"/>
		<path class="s3" d="m2787.21 469.41c3.11-1.1 5.03-3.06 5.22-6.22 0.19-3.14-1.9-5.04-4.51-5.92-5.34-1.8-10.81-3.22-16.22-4.81-4.21-1.24-8.09-3.02-11.04-6.43-6.44-7.48-4.99-19.2 3.19-24.78 9.24-6.29 19.34-6.49 29.62-3.47 3.91 1.15 7.51 3.3 11.48 5.1-2.28 3.65-4.21 6.74-6.23 9.96-5.84-4.08-12.28-5.77-19.32-4.88-1.47 0.19-2.94 0.54-4.34 1.04-2.33 0.81-4.09 2.28-4.26 4.97-0.18 2.68 1.28 4.53 3.57 5.47 2.98 1.23 6.11 2.09 9.18 3.12 4.47 1.5 9.13 2.6 13.37 4.59 13.47 6.32 10.89 23.79 2.05 29.83-6.04 4.13-12.76 5.45-19.9 5.29-8.28-0.18-15.93-2.29-22.68-7.23-0.74-0.53-1.39-1.17-2.3-1.96 2.06-3.06 4.07-6.05 6.12-9.1 8.33 5.47 16.99 8.43 27 5.43z"/>
		<path class="s0" d="m2849.43 417.56c2.06 0 3.88 0 5.9 0 0 4.14 0 8.1 0 12.3-5.94 0-11.97 0-18.19 0-0.08 0.83-0.19 1.46-0.19 2.09q0 14.74 0.04 29.48c0.02 5.04 2.71 7.79 7.75 8.15 4.32 0.31 8.16-1.11 12.09-3.14 1.02 2.86 2.08 5.64 2.95 8.48 0.15 0.47-0.36 1.37-0.83 1.77-6.94 5.83-19.57 7.18-27.53 2.96-4.89-2.6-7.37-7-8.02-12.23-0.6-4.77-0.62-9.62-0.68-14.44-0.07-6.16 0.07-12.32 0.12-18.48 0.01-1.4 0-2.79 0-4.42-3.6 0-6.89 0-10.35 0 0-4.16 0-8.1 0-12.33 3.27 0 6.56 0 10.31 0 0-4.05 0-7.83 0-11.62 0-3.81 0-7.62 0-11.57 4.68 0 9.23 0 14.04 0 0 7.52 0 15.05 0 23 4.27 0 8.31 0 12.59 0z"/>
		<path class="s0" d="m2449.98 460c0-25.89 0-51.53 0-77.34 4.65 0 9.19 0 13.93 0q0 48.39 0 96.98c-4.68 0-9.22 0-13.93 0 0-6.59 0-12.99 0-19.64z"/>
		<path class="s4" d="m2682.71 419.1c0 4.06 0 7.87 0 11.71-2.54 0.18-4.94 0.21-7.29 0.56-9.73 1.48-16.51 9.31-16.57 19.16-0.06 8.74-0.02 17.49-0.02 26.23 0 0.9 0 1.8 0 2.88-4.58 0-8.94 0-13.51 0 0-20.62 0-41.13 0-61.84 4.39 0 8.67 0 13.27 0q0 6.35 0 12.63c5.39-9.28 12.79-14.76 23.98-14.41 0.05 1.04 0.1 1.95 0.14 3.08z"/>
		<path class="s0" d="m2739.96 304.01c0.05-0.18 0.18-0.28 0.32-0.38 0.03 0.13 0.06 0.25 0.02 0.5-0.07 0.11-0.26-0.04-0.34-0.12z"/>
	</g>
</svg>